<svg width="100" height="100" viewBox="0 0 100 100" fill="none" xmlns="http://www.w3.org/2000/svg">
<path d="M50 0C43.4339 0 36.9321 1.3254 30.8658 3.90052C24.7995 6.47563 19.2876 10.25 14.6447 15.0082C5.26784 24.6179 0 37.6513 0 51.2414C0 73.89 14.35 93.1055 34.2 99.9206C36.7 100.331 37.5 98.7421 37.5 97.3586V88.6988C23.65 91.7733 20.7 81.8324 20.7 81.8324C18.4 75.8884 15.15 74.3 15.15 74.3C10.6 71.123 15.5 71.2255 15.5 71.2255C20.5 71.5842 23.15 76.5033 23.15 76.5033C27.5 84.292 34.85 81.9862 37.7 80.7564C38.15 77.4257 39.45 75.1711 40.85 73.89C29.75 72.609 18.1 68.2022 18.1 48.6793C18.1 42.9915 20 38.431 23.25 34.7929C22.75 33.5118 21 28.1827 23.75 21.2652C23.75 21.2652 27.95 19.8816 37.5 26.4918C41.45 25.3645 45.75 24.8008 50 24.8008C54.25 24.8008 58.55 25.3645 62.5 26.4918C72.05 19.8816 76.25 21.2652 76.25 21.2652C79 28.1827 77.25 33.5118 76.75 34.7929C80 38.431 81.9 42.9915 81.9 48.6793C81.9 68.2535 70.2 72.5578 59.05 73.8388C60.85 75.4273 62.5 78.553 62.5 83.3184V97.3586C62.5 98.7421 63.3 100.382 65.85 99.9206C85.7 93.0543 100 73.89 100 51.2414C100 44.5122 98.7067 37.849 96.194 31.6321C93.6812 25.4152 89.9983 19.7664 85.3553 15.0082C80.7124 10.25 75.2004 6.47563 69.1342 3.90052C63.0679 1.3254 56.5661 0 50 0Z" fill="#D3F8AE"/>
</svg>
