<svg width="100" height="75" viewBox="0 0 100 75" fill="none" xmlns="http://www.w3.org/2000/svg">
<g clip-path="url(#clip0_150_408)">
<path d="M22.7273 74.6308V36.1943L10.7449 25.289L0 19.2373V67.8478C0 71.6009 3.05664 74.6308 6.81836 74.6308H22.7273Z" fill="#D3F8AE"/>
<path d="M77.2725 74.6309H93.1814C96.9545 74.6309 99.9998 71.5897 99.9998 67.8479V19.2378L87.8295 26.1693L77.2725 36.1944V74.6309Z" fill="#D3F8AE"/>
<path d="M22.7271 36.1945L21.0967 21.1762L22.7271 6.80225L49.9998 27.1509L77.2725 6.80225L79.0963 20.4002L77.2725 36.1945L49.9998 56.5432L22.7271 36.1945Z" fill="#D3F8AE"/>
<path d="M77.2725 6.80195V36.1942L99.9998 19.2372V10.1933C99.9998 1.80532 90.3748 -2.97642 83.6365 2.05402L77.2725 6.80195Z" fill="#D3F8AE"/>
<path d="M0 19.2374L10.4527 27.0366L22.7273 36.1944V6.80213L16.3633 2.0542C9.61328 -2.97663 0 1.8055 0 10.1931V19.2374Z" fill="#D3F8AE"/>
</g>
<defs>
<clipPath id="clip0_150_408">
<rect width="100" height="75" fill="white"/>
</clipPath>
</defs>
</svg>
