<svg width="28" height="28" viewBox="0 0 28 28" fill="none" xmlns="http://www.w3.org/2000/svg">
<path d="M13.625 3.41667C14.0118 3.41667 14.3827 3.57031 14.6562 3.8438C14.9297 4.11729 15.0833 4.48823 15.0833 4.875C15.0833 5.26177 14.9297 5.63271 14.6562 5.9062C14.3827 6.17969 14.0118 6.33333 13.625 6.33333H4.875C4.48823 6.33333 4.11729 6.48698 3.8438 6.76047C3.57031 7.03396 3.41667 7.40489 3.41667 7.79167V22.375C3.41667 22.7618 3.57031 23.1327 3.8438 23.4062C4.11729 23.6797 4.48823 23.8333 4.875 23.8333H19.4583C19.8451 23.8333 20.216 23.6797 20.4895 23.4062C20.763 23.1327 20.9167 22.7618 20.9167 22.375V13.625C20.9167 13.2382 21.0703 12.8673 21.3438 12.5938C21.6173 12.3203 21.9882 12.1667 22.375 12.1667C22.7618 12.1667 23.1327 12.3203 23.4062 12.5938C23.6797 12.8673 23.8333 13.2382 23.8333 13.625V22.375C23.8333 23.5353 23.3724 24.6481 22.5519 25.4686C21.7315 26.2891 20.6187 26.75 19.4583 26.75H4.875C3.71468 26.75 2.60188 26.2891 1.78141 25.4686C0.960936 24.6481 0.5 23.5353 0.5 22.375V7.79167C0.5 6.63134 0.960936 5.51855 1.78141 4.69807C2.60188 3.8776 3.71468 3.41667 4.875 3.41667H13.625ZM18 0.5H25.2917L25.401 0.504375L25.5848 0.529167L25.7467 0.572917L25.9085 0.637083L26.0515 0.712917L26.1915 0.810625L26.3227 0.927292C26.3752 0.978819 26.4224 1.03326 26.4642 1.09062L26.5677 1.25104L26.6465 1.41729L26.6975 1.57042L26.7412 1.78625L26.75 1.95833V9.25C26.75 9.63677 26.5964 10.0077 26.3229 10.2812C26.0494 10.5547 25.6784 10.7083 25.2917 10.7083C24.9049 10.7083 24.534 10.5547 24.2605 10.2812C23.987 10.0077 23.8333 9.63677 23.8333 9.25V5.47875L13.1977 16.1144C12.9227 16.38 12.5543 16.527 12.1719 16.5237C11.7895 16.5204 11.4238 16.367 11.1534 16.0966C10.883 15.8262 10.7296 15.4605 10.7263 15.0781C10.723 14.6957 10.87 14.3273 11.1356 14.0523L21.7683 3.41667H18C17.6132 3.41667 17.2423 3.26302 16.9688 2.98953C16.6953 2.71604 16.5417 2.34511 16.5417 1.95833C16.5417 1.57156 16.6953 1.20063 16.9688 0.927136C17.2423 0.653645 17.6132 0.5 18 0.5Z" fill="#D3F8AE" stroke="#D3F8AE"/>
</svg>
