<svg width="20" height="20" viewBox="0 0 20 20" fill="none" xmlns="http://www.w3.org/2000/svg">
<path d="M8.995 19V12.412L4.34 17.067C4.24775 17.1625 4.13741 17.2387 4.0154 17.2911C3.8934 17.3435 3.76218 17.3711 3.6294 17.3722C3.49662 17.3734 3.36494 17.3481 3.24205 17.2978C3.11915 17.2475 3.0075 17.1733 2.91361 17.0794C2.81971 16.9855 2.74546 16.8739 2.69518 16.751C2.6449 16.6281 2.6196 16.4964 2.62075 16.3636C2.6219 16.2308 2.64949 16.0996 2.7019 15.9776C2.75431 15.8556 2.83049 15.7452 2.926 15.653L7.584 10.995H1C0.734784 10.995 0.48043 10.8896 0.292893 10.7021C0.105357 10.5146 0 10.2602 0 9.995C0 9.72978 0.105357 9.47543 0.292893 9.28789C0.48043 9.10036 0.734784 8.995 1 8.995H7.574L2.926 4.347C2.73836 4.15949 2.63289 3.90512 2.6328 3.63985C2.63275 3.50851 2.65858 3.37843 2.7088 3.25707C2.75902 3.1357 2.83266 3.02541 2.9255 2.9325C3.01834 2.83959 3.12858 2.76588 3.24991 2.71557C3.37124 2.66526 3.5013 2.63934 3.63265 2.6393C3.89792 2.6392 4.15236 2.74449 4.34 2.932L8.995 7.588V1C8.995 0.734784 9.10036 0.48043 9.28789 0.292893C9.47543 0.105357 9.72978 0 9.995 0C10.2602 0 10.5146 0.105357 10.7021 0.292893C10.8896 0.48043 10.995 0.734784 10.995 1V7.584L15.653 2.926C15.7452 2.83049 15.8556 2.75431 15.9776 2.7019C16.0996 2.64949 16.2308 2.6219 16.3636 2.62075C16.4964 2.6196 16.6281 2.6449 16.751 2.69518C16.8739 2.74546 16.9855 2.81971 17.0794 2.9136C17.1733 3.0075 17.2475 3.11915 17.2978 3.24205C17.3481 3.36494 17.3734 3.49662 17.3722 3.6294C17.3711 3.76218 17.3435 3.8934 17.2911 4.0154C17.2387 4.13741 17.1625 4.24775 17.067 4.34L12.412 8.995H19C19.2652 8.995 19.5196 9.10036 19.7071 9.28789C19.8946 9.47543 20 9.72978 20 9.995C20 10.2602 19.8946 10.5146 19.7071 10.7021C19.5196 10.8896 19.2652 10.995 19 10.995H12.402L17.067 15.66C17.2492 15.8486 17.35 16.1012 17.3477 16.3634C17.3454 16.6256 17.2402 16.8764 17.0548 17.0618C16.8694 17.2472 16.6186 17.3524 16.3564 17.3547C16.0942 17.357 15.8416 17.2562 15.653 17.074L10.995 12.416V19C10.995 19.2652 10.8896 19.5196 10.7021 19.7071C10.5146 19.8946 10.2602 20 9.995 20C9.72978 20 9.47543 19.8946 9.28789 19.7071C9.10036 19.5196 8.995 19.2652 8.995 19Z" fill="#D3F8AE"/>
</svg>
