<svg width="30" height="30" viewBox="0 0 30 30" fill="none" xmlns="http://www.w3.org/2000/svg">
<path d="M15.0008 0C6.71284 0 5.57721e-06 6.88245 5.57721e-06 15.3798C-0.00271052 18.6085 0.986689 21.756 2.82773 24.3754C4.66876 26.9949 7.26787 28.9531 10.256 29.9721C11.0061 30.1059 11.2881 29.6445 11.2881 29.24C11.2881 28.8755 11.2686 27.6652 11.2686 26.3763C7.50038 27.0884 6.52533 25.4351 6.22532 24.5692C6.05581 24.1263 5.32527 22.7621 4.68774 22.396C4.16271 22.1084 3.41268 21.3964 4.66824 21.3779C5.8503 21.3579 6.69334 22.4929 6.97535 22.9543C8.32542 25.2797 10.481 24.6261 11.3436 24.2232C11.4756 23.2235 11.8686 22.5514 12.3006 22.1669C8.96295 21.7824 5.47528 20.4551 5.47528 14.5723C5.47528 12.899 6.05581 11.5164 7.01285 10.4398C6.86285 10.0553 6.33782 8.47887 7.16286 6.36415C7.16286 6.36415 8.41842 5.95967 11.2881 7.93904C12.5094 7.59245 13.771 7.41808 15.0383 7.42074C16.3133 7.42074 17.5884 7.593 18.7884 7.93904C21.6581 5.93967 22.9136 6.36415 22.9136 6.36415C23.7387 8.47887 23.2137 10.0553 23.0637 10.4398C24.0192 11.5164 24.6012 12.8806 24.6012 14.5723C24.6012 20.4751 21.0956 21.7824 17.7579 22.1669C18.3009 22.6467 18.7704 23.5695 18.7704 25.0121C18.7704 27.0684 18.7509 28.7217 18.7509 29.2416C18.7509 29.6445 19.033 30.1244 19.783 29.9706C22.7599 28.9388 25.3465 26.9763 27.1792 24.3591C29.0119 21.7419 29.9984 18.6016 30 15.3798C30 6.88245 23.2872 0 14.9993 0" fill="#D3F8AE"/>
</svg>
